<svg width="48" height="28" viewBox="0 0 48 28" fill="none" xmlns="http://www.w3.org/2000/svg">
<path d="M13.8967 27.7871C21.5663 27.7871 27.7872 21.56 27.7872 13.8904C27.7872 6.22081 21.5664 0 13.8967 0C6.22081 0 0 6.22081 0 13.8904C0 21.56 6.22081 27.7871 13.8967 27.7871Z" fill="#535353"/>
<path d="M34.1096 27.7871C41.7792 27.7871 48 21.56 48 13.8904C48 6.22081 41.7793 0 34.1096 0C26.4336 0 20.2192 6.22081 20.2192 13.8904C20.2192 21.56 26.4336 27.7871 34.1096 27.7871Z" fill="#535353"/>
<path d="M23.9937 23.4217C21.6553 20.9309 20.2192 17.5758 20.2192 13.8904C20.2192 10.243 21.6299 6.91975 23.9238 4.4416L24.2161 4.5941C26.4337 7.05955 27.7872 10.3193 27.7872 13.8904C27.7872 17.4805 26.4211 20.7466 24.1907 23.2184L23.9937 23.4217Z" fill="#606060"/>
<path d="M2.72607 10.4083H3.93974L5.49653 14.2907L6.88811 10.4083H8.17166V15.5806H7.17405V11.7427L5.83966 15.5806H5.0835L3.74911 11.7935V15.5806H2.72607V10.4083Z" fill="#1F1F1F"/>
<path d="M13.2802 15.5806V11.6219H12.4287V15.5806H13.2802Z" fill="#1F1F1F"/>
<path d="M18.9736 15.5806V10.4782H18.0776V15.5806H18.9736Z" fill="#1F1F1F"/>
<path d="M17.563 11.6219V12.5687H19.5582V11.6219H17.563Z" fill="#1F1F1F"/>
<path d="M37.7884 15.5806V11.6219H36.937V15.5806H37.7884Z" fill="#1F1F1F"/>
<path d="M45.4774 15.5806V10.6307H44.626V15.5806H45.4774Z" fill="#1F1F1F"/>
<path d="M26.1923 11.6219H25.3091V15.5806H26.2049V12.9626C26.4146 12.5368 27.0437 12.4479 27.1454 12.4479V11.5964C26.9357 11.5964 26.2176 11.7553 26.1922 12.1429V11.6219H26.1923Z" fill="#1F1F1F"/>
<path d="M39.7329 11.6219H38.8433V15.5806H39.7457V12.9626C39.949 12.5368 40.5844 12.4479 40.6797 12.4479V11.5964C40.4763 11.5964 39.7584 11.7553 39.7329 12.1429V11.6219Z" fill="#1F1F1F"/>
<path d="M15.9491 12.753H16.8196C16.8196 12.0604 16.3748 11.6346 15.6441 11.6346C14.9133 11.6346 14.3351 12.0159 14.3351 12.8674C14.3351 13.7187 15.231 13.8396 15.3772 13.8777C15.5551 13.9284 16.0444 13.9857 16.0444 14.5258C16.0444 14.7292 15.8029 14.78 15.5932 14.78C15.3899 14.78 15.1802 14.6211 15.1802 14.386H14.208C14.208 15.2756 14.9006 15.6315 15.5932 15.6315C16.2858 15.6315 16.9467 15.0722 16.9467 14.3986C16.9467 13.7379 16.2986 13.3502 15.7902 13.2739C15.0214 13.1659 15.0976 12.4987 15.5424 12.4987C15.9618 12.4988 15.9364 12.6831 15.9491 12.753Z" fill="#1F1F1F"/>
<path d="M31.9046 14.1635C31.5869 14.5639 31.0976 14.818 30.5511 14.818C29.598 14.818 28.8291 14.0492 28.8291 13.1087C28.8291 12.1556 29.598 11.3867 30.5511 11.3867C31.0913 11.3867 31.5805 11.6346 31.8919 12.0285H33.0102C32.5972 11.05 31.6377 10.4082 30.5511 10.4082C29.0579 10.4082 27.8506 11.6155 27.8506 13.1087C27.8506 14.5893 29.0579 15.8029 30.5511 15.8029C31.6568 15.8029 32.6099 15.1168 33.0293 14.1635H31.9046Z" fill="#1F1F1F"/>
<path d="M43.4313 15.6759C44.5687 15.6759 45.4965 14.7481 45.4965 13.6171C45.4965 12.4733 44.5687 11.5519 43.4313 11.5519V12.4288C44.0858 12.4288 44.6196 12.9626 44.6196 13.6171C44.6196 14.2652 44.0858 14.799 43.4313 14.799V15.6759ZM43.4313 15.6759V14.799C42.7769 14.799 42.2431 14.2652 42.2431 13.6171C42.2431 12.9626 42.7769 12.4288 43.4313 12.4288V11.5519C42.2939 11.5519 41.3662 12.4733 41.3662 13.6171C41.3662 14.7481 42.2939 15.6759 43.4313 15.6759Z" fill="#1F1F1F"/>
<path d="M35.7424 15.6759C36.8861 15.6759 37.8075 14.7481 37.8075 13.6171C37.8075 12.4733 36.8861 11.5519 35.7424 11.5519V12.4288C36.3969 12.4288 36.9306 12.9626 36.9306 13.6171C36.9306 14.2652 36.3969 14.799 35.7424 14.799V15.6759ZM35.7424 11.552C34.605 11.552 33.6772 12.4734 33.6772 13.6172C33.6772 14.7482 34.6051 15.676 35.7424 15.676V14.799C35.0879 14.799 34.5541 14.2653 34.5541 13.6172C34.5541 12.9627 35.0879 12.4289 35.7424 12.4289V11.552Z" fill="#1F1F1F"/>
<path d="M22.297 14.0237H24.3113C24.3177 13.9666 24.3241 13.903 24.3241 13.8458V13.6742C24.2923 12.7529 23.7141 11.6218 22.2971 11.6091V12.5686C22.78 12.5686 23.2566 12.791 23.2566 13.2294H22.2971V14.0237H22.297ZM22.297 15.6886C23.0976 15.6759 24.2223 15.1549 24.2223 14.4877H23.1485C23.1485 14.6466 22.7355 14.7927 22.297 14.7864V15.6886ZM21.3121 14.0237H22.297V13.2294H21.3375C21.3375 12.791 21.8141 12.5686 22.297 12.5686V11.6092C22.2907 11.6092 22.2779 11.6092 22.2716 11.6092C20.988 11.6092 20.2891 12.6767 20.2827 13.7188V13.7569C20.3018 14.7419 20.9308 15.6887 22.2589 15.6887C22.2716 15.6887 22.2843 15.6887 22.297 15.6887V14.7863C21.8141 14.78 21.3121 14.5829 21.3121 14.0237Z" fill="#1F1F1F"/>
<path d="M11.2409 15.6759C12.3783 15.6759 13.306 14.7481 13.306 13.6171C13.306 12.4733 12.3783 11.5519 11.2409 11.5519V12.4288C11.8954 12.4288 12.4292 12.9626 12.4292 13.6171C12.4292 14.2652 11.8954 14.799 11.2409 14.799V15.6759ZM11.2409 15.6759V14.799C10.5864 14.799 10.0527 14.2652 10.0527 13.6171C10.0527 12.9626 10.5864 12.4288 11.2409 12.4288V11.5519C10.0971 11.5519 9.17578 12.4733 9.17578 13.6171C9.17578 14.7481 10.0971 15.6759 11.2409 15.6759Z" fill="#1F1F1F"/>
</svg>
