<svg width="62" height="20" viewBox="0 0 62 20" fill="none" xmlns="http://www.w3.org/2000/svg">
<path d="M40.3829 0C35.9806 0 32.0466 2.27172 32.0466 6.46889C32.0466 11.2822 39.0238 11.6147 39.0238 14.0328C39.0238 15.051 37.8518 15.9624 35.8501 15.9624C33.0093 15.9624 30.8861 14.6889 30.8861 14.6889L29.9776 18.9243C29.9776 18.9243 32.4235 20 35.6708 20C40.4839 20 44.2712 17.6167 44.2712 13.3478C44.2712 8.26162 37.2649 7.93904 37.2649 5.69465C37.2649 4.89706 38.227 4.02316 40.223 4.02316C42.475 4.02316 44.3124 4.94935 44.3124 4.94935L45.2015 0.858659C45.2015 0.858659 43.2023 0 40.3829 0ZM0.106596 0.308732L0 0.926194C0 0.926194 1.85203 1.26365 3.52008 1.93681C5.66784 2.70871 5.82084 3.15808 6.18256 4.55379L10.1242 19.6816H15.4079L23.548 0.308732H18.2763L13.0459 13.4805L10.9115 2.31549C10.7158 1.03766 9.72432 0.308732 8.51071 0.308732H0.106596ZM25.6678 0.308732L21.5324 19.6816H26.5593L30.6802 0.308732H25.6678ZM53.7049 0.308732C52.4927 0.308732 51.8505 0.954854 51.3792 2.08394L44.0144 19.6816H49.286L50.306 16.7487H56.7284L57.3485 19.6816H62L57.9421 0.308732H53.7049ZM54.3905 5.54269L55.9531 12.8124H51.7668L54.3905 5.54269Z" fill="#606060"/>
</svg>
