<svg width="68" height="18" viewBox="0 0 68 18" fill="none" xmlns="http://www.w3.org/2000/svg">
<path fill-rule="evenodd" clip-rule="evenodd" d="M6.28818 0.00307161C6.89568 -0.000455199 8.70115 -0.158255 9.46591 2.34646C9.98106 4.03367 10.8017 6.7974 11.9277 10.6376H12.3863C13.5939 6.58899 14.4235 3.82526 14.875 2.34646C15.6477 -0.184346 17.5795 0.00312121 18.3523 0.00312121L24.314 0.00312842V18H18.2376V7.39413H17.8302L14.4429 18H9.87116L6.48387 7.38627H6.0764V18H0V0.00312842L6.28818 0.00307161ZM33.0396 0.00312842V10.6169H33.5244L37.6447 1.88926C38.4445 0.152447 40.1492 0.00312842 40.1492 0.00312842H46.0294V18H39.8261V7.38627H39.3413L35.3018 16.1139C34.502 17.8428 32.7165 18 32.7165 18H26.8363V0.00312842H33.0396ZM67.4708 8.55536C66.6055 10.9349 63.8881 12.639 60.8796 12.639H54.3742V18H48.4752V8.55536H67.4708Z" fill="#606060"/>
<path fill-rule="evenodd" clip-rule="evenodd" d="M61.1641 0.00312842H48.1659C48.4752 4.00984 52.0309 7.43985 55.7117 7.43985H67.8807C68.5829 4.1098 66.1654 0.00312842 61.1641 0.00312842Z" fill="#606060"/>
</svg>
